{
  "asset": {
    "version": "2.0",
    "generator": "Zongine Converter"
  },
  "scenes": [
    {
      "nodes": [
        0
      ]
    }
  ],
  "scene": 0,
  "nodes": [
    {
      "mesh": 0,
      "skin": 0
    },
    {
      "name": "fbr4_f15407head014_09",
      "matrix": [
        -0.3699485659599304,
        0.002782523399218917,
        0.1346500962972641,
        0.0,
        -0.13465335965156555,
        1.8737771370069822e-06,
        -0.36995789408683777,
        0.0,
        -0.0026153645012527704,
        -0.3936908543109894,
        0.0009499102015979588,
        0.0,
        2.5633699893951416,
        -1.6366349458694458,
        -4.4158759117126465,
        1.0
      ],
      "children": [
        3
      ]
    },
    {
      "name": "fbr4_f15407head012_09",
      "matrix": [
        -0.36994853615760803,
        -0.0027822284027934074,
        0.1346503645181656,
        0.0,
        0.13465377688407898,
        3.033620487258304e-06,
        0.3699575662612915,
        0.0,
        -0.002615435514599085,
        0.3936908543109894,
        0.0009487222414463758,
        0.0,
        2.563419818878174,
        1.6366328001022339,
        -4.415709018707275,
        1.0
      ],
      "children": [
        8
      ]
    },
    {
      "name": "fb3_f15407head015_04",
      "matrix": [
        0.34095481038093567,
        2.1145865503058303e-06,
        -0.1968504786491394,
        0.0,
        -1.6977402594875457e-07,
        0.39370086789131165,
        3.871229182550451e-06,
        0.0,
        0.19685029983520508,
        -3.263640110162669e-06,
        0.3409547805786133,
        0.0,
        -2.3043527603149414,
        -1.715253893053159e-05,
        1.330421805381775,
        1.0
      ]
    },
    {
      "name": "fbr4_f15407head009_09",
      "matrix": [
        -0.3199487626552582,
        0.19107511639595032,
        -0.12697762250900269,
        0.0,
        -0.13119447231292725,
        0.026373114436864853,
        0.3702602982521057,
        0.0,
        0.18820476531982422,
        0.34321266412734985,
        0.04224010929465294,
        0.0,
        2.6440587043762207,
        -4.545567512512207,
        3.324652910232544,
        1.0
      ]
    },
    {
      "name": "bip01 head",
      "matrix": [
        0.3932972252368927,
        -8.548737184810307e-08,
        -0.017820987850427628,
        0.0,
        8.614449598098872e-08,
        0.3937007784843445,
        1.2566419016479813e-08,
        0.0,
        0.017820987850427628,
        -1.6452931461685694e-08,
        0.3932972252368927,
        0.0,
        -1.090704321861267,
        2.370762928194381e-07,
        0.049421727657318115,
        1.0
      ],
      "children": [
        1,
        2,
        10,
        11,
        4,
        9
      ]
    },
    {
      "name": "fb3_f15407head019_04",
      "matrix": [
        0.3225008249282837,
        -0.2258177548646927,
        -2.1202676236953266e-07,
        0.0,
        0.22581762075424194,
        0.32250073552131653,
        5.533937041946047e-07,
        0.0,
        -1.5975902556419896e-07,
        -5.452306481856795e-07,
        0.3937009871006012,
        0.0,
        -2.1040313243865967,
        1.4732707738876343,
        -2.4313976609846577e-06,
        1.0
      ]
    },
    {
      "name": "fb3_f15407head017_04",
      "matrix": [
        0.3225008249282837,
        0.22581739723682404,
        -7.941166018099466e-07,
        0.0,
        -0.22581718862056732,
        0.32250091433525085,
        -1.062520254890842e-06,
        0.0,
        -1.7602850732600928e-08,
        1.303654357798223e-06,
        0.3937009871006012,
        0.0,
        -2.564517021179199,
        -1.7956968545913696,
        1.546429757581791e-06,
        1.0
      ]
    },
    {
      "name": "fb3_f15407head013_04",
      "matrix": [
        0.34095484018325806,
        -1.7871657291834708e-06,
        -0.19685040414333344,
        0.0,
        -4.168776435165e-09,
        0.39370086789131165,
        -3.550645260474994e-06,
        0.0,
        0.19685058295726776,
        3.1071958801476285e-06,
        0.34095498919487,
        0.0,
        -2.3043529987335205,
        1.3985979421704542e-05,
        1.3304212093353271,
        1.0
      ]
    },
    {
      "name": "fbr4_f15407head008_09",
      "matrix": [
        -0.34103506803512573,
        -0.19443537294864655,
        -0.02983645349740982,
        0.0,
        0.03431345894932747,
        -8.102076662908075e-07,
        -0.3922025263309479,
        0.0,
        0.19369541108608246,
        -0.3423376977443695,
        0.016946949064731598,
        0.0,
        3.6141109466552734,
        5.159053802490234,
        1.4203890562057495,
        1.0
      ]
    },
    {
      "name": "fbr4_f15407head018_09",
      "matrix": [
        -0.345196396112442,
        0.09860978275537491,
        -0.1616038829088211,
        0.0,
        0.1003490462899208,
        0.38028576970100403,
        0.01769598387181759,
        0.0,
        0.16052961349487305,
        -0.025674857199192047,
        -0.358568400144577,
        0.0,
        2.4743926525115967,
        -3.3110342025756836,
        3.315826416015625,
        1.0
      ],
      "children": [
        6
      ]
    },
    {
      "name": "fbr4_f15407head016_09",
      "matrix": [
        -0.34519657492637634,
        -0.09860964864492416,
        -0.16160371899604797,
        0.0,
        -0.1003485694527626,
        0.3802858889102936,
        -0.01769687607884407,
        0.0,
        0.1605297327041626,
        0.025673840194940567,
        -0.35856831073760986,
        0.0,
        2.5869083404541016,
        3.4016194343566895,
        3.2915172576904297,
        1.0
      ],
      "children": [
        7
      ]
    },
    {
      "name": "b_hat",
      "matrix": [
        0.65616774559021,
        5.526948854139846e-08,
        -5.7036320555425846e-08,
        0.0,
        -5.892827203979323e-08,
        0.6561682224273682,
        2.139984900395575e-07,
        0.0,
        6.111038430844928e-08,
        -2.1356187573928764e-07,
        0.6561678051948547,
        0.0,
        -4.740122140287073e-13,
        6.102298812038498e-06,
        7.947303402033867e-07,
        1.0
      ]
    },
    {
      "name": "Socket_s_face\u0000\u0000p\u000b\n\u0000\u0000\u0000\u0000o",
      "matrix": [
        0.3937007784843445,
        -1.2919726088966854e-07,
        1.0149221907340689e-08,
        0.0,
        1.2826595252590778e-07,
        0.39370080828666687,
        -3.53845734935021e-08,
        0.0,
        -2.5050375995760987e-08,
        3.7247232853587775e-08,
        0.39370086789131165,
        0.0,
        0.0,
        -1.8189894035458565e-12,
        0.0,
        1.0
      ],
      "extras": {
        "parent": "bip01 head\u0000\u0000\u0000\u0000\u0000\u0000\u0000\u0000\u0000\u0000\u0000\u0000\u0000\u0000\u0014"
      }
    },
    {
      "name": "Socket_s_fxtop\u0000p\u000b\n\u0000\u0000\u0000\u0000o",
      "matrix": [
        4.1300790343257177e-08,
        0.23622044920921326,
        -3.450410872574139e-07,
        0.0,
        0.22859787940979004,
        -1.4079834897984256e-07,
        -0.05952398106455803,
        0.0,
        -0.05952398106455803,
        -3.203162464160414e-07,
        -0.22859789431095123,
        0.0,
        12.31869125366211,
        1.846013037720695e-05,
        -0.2890357971191406,
        1.0
      ],
      "extras": {
        "parent": "bip01 head\u0000\u0000\u0000\u0000\u0000\u0000\u0000\u0000\u0000\u0000\u0000\u0000\u0000\u0000\u0014"
      }
    },
    {
      "name": "Socket_s_hat\u0000p\u0000p\u000b\n\u0000\u0000\u0000\u0000o",
      "matrix": [
        0.3937007784843445,
        -1.3143467417268918e-15,
        1.4666496905846316e-09,
        0.0,
        -4.620102035524771e-16,
        0.3937007784843445,
        2.807361615853217e-14,
        0.0,
        -5.191939767001941e-09,
        -1.3862761443330165e-14,
        0.3937007486820221,
        0.0,
        0.0,
        0.0,
        0.0,
        1.0
      ],
      "extras": {
        "parent": "b_hat\u0000head\u0000\u0000\u0000\u0000\u0000\u0000\u0000\u0000\u0000\u0000\u0000\u0000\u0000\u0000\u0014"
      }
    }
  ],
  "meshes": [
    {
      "primitives": [
        {
          "attributes": {
            "POSITION": 0,
            "NORMAL": 1,
            "TEXCOORD_0": 2,
            "COLOR_0": 3,
            "JOINTS_0": 4,
            "WEIGHTS_0": 5
          },
          "indices": 6,
          "material": 0
        }
      ]
    }
  ],
  "materials": [
    {
      "pbrMetallicRoughness": {
        "baseColorFactor": [
          1.0,
          1.0,
          1.0,
          1.0
        ],
        "metallicFactor": 0.0,
        "roughnessFactor": 1.0
      }
    }
  ],
  "accessors": [
    {
      "bufferView": 0,
      "componentType": 5126,
      "count": 6368,
      "type": "VEC3",
      "min": [
        -13.542878150939941,
        92.35604095458984,
        -10.854470252990723
      ],
      "max": [
        13.542877197265625,
        116.14794158935547,
        7.120442867279053
      ]
    },
    {
      "bufferView": 1,
      "componentType": 5126,
      "count": 6368,
      "type": "VEC3"
    },
    {
      "bufferView": 2,
      "componentType": 5126,
      "count": 6368,
      "type": "VEC2"
    },
    {
      "bufferView": 3,
      "componentType": 5126,
      "count": 6368,
      "type": "VEC4"
    },
    {
      "bufferView": 4,
      "componentType": 5123,
      "count": 6368,
      "type": "VEC4"
    },
    {
      "bufferView": 5,
      "componentType": 5126,
      "count": 6368,
      "type": "VEC4"
    },
    {
      "bufferView": 6,
      "componentType": 5125,
      "count": 23496,
      "type": "SCALAR"
    },
    {
      "bufferView": 7,
      "componentType": 5126,
      "count": 12,
      "type": "MAT4"
    }
  ],
  "bufferViews": [
    {
      "buffer": 0,
      "byteOffset": 0,
      "byteLength": 76416,
      "target": 34962
    },
    {
      "buffer": 0,
      "byteOffset": 76416,
      "byteLength": 76416,
      "target": 34962
    },
    {
      "buffer": 0,
      "byteOffset": 152832,
      "byteLength": 50944,
      "target": 34962
    },
    {
      "buffer": 0,
      "byteOffset": 203776,
      "byteLength": 101888,
      "target": 34962
    },
    {
      "buffer": 0,
      "byteOffset": 305664,
      "byteLength": 50944,
      "target": 34962
    },
    {
      "buffer": 0,
      "byteOffset": 356608,
      "byteLength": 101888,
      "target": 34962
    },
    {
      "buffer": 0,
      "byteOffset": 458496,
      "byteLength": 93984,
      "target": 34963
    },
    {
      "buffer": 0,
      "byteOffset": 552480,
      "byteLength": 768
    }
  ],
  "buffers": [
    {
      "byteLength": 553248,
      "uri": "F1_5407h_a_head.bin"
    }
  ],
  "skins": [
    {
      "joints": [
        1,
        2,
        3,
        4,
        5,
        6,
        7,
        8,
        9,
        10,
        11,
        12
      ],
      "inverseBindMatrices": 7
    }
  ]
}