{
  "asset": {
    "version": "2.0",
    "generator": "Zongine Converter"
  },
  "scenes": [
    {
      "nodes": [
        0
      ]
    }
  ],
  "scene": 0,
  "nodes": [
    {
      "mesh": 0,
      "skin": 0
    },
    {
      "name": "cheek_l",
      "matrix": [
        -4.958398491794469e-08,
        0.3937007784843445,
        -2.6436140387886553e-08,
        0.0,
        -0.23831002414226532,
        -5.175758843734002e-08,
        -0.3133825659751892,
        0.0,
        -0.3133825659751892,
        -1.9602632406190423e-08,
        0.2383100539445877,
        0.0,
        -0.11072823405265808,
        -1.1846258640289307,
        0.0842030942440033,
        1.0
      ]
    },
    {
      "name": "cheek_r",
      "matrix": [
        9.628161734553942e-08,
        0.39370080828666687,
        9.074466511549417e-09,
        0.0,
        0.2383093237876892,
        -4.747782611502771e-08,
        -0.3133831024169922,
        0.0,
        -0.3133831024169922,
        8.181852706456993e-08,
        -0.2383093237876892,
        0.0,
        -0.11072906106710434,
        -1.1846259832382202,
        -0.08420250564813614,
        1.0
      ]
    },
    {
      "name": "eye_l",
      "matrix": [
        -0.38161933422088623,
        -0.021861320361495018,
        0.09428180009126663,
        0.0,
        -0.02112692967057228,
        0.39309319853782654,
        0.005633040331304073,
        0.0,
        -0.09444908052682877,
        0.00040079260361380875,
        -0.38220348954200745,
        0.0,
        0.0,
        -0.0,
        -0.0,
        1.0
      ],
      "children": [
        33
      ]
    },
    {
      "name": "eye_l_deform",
      "matrix": [
        2.3466574461394885e-08,
        0.39370080828666687,
        1.1107479735983361e-07,
        0.0,
        1.8773117460568756e-07,
        -1.110747831489789e-07,
        0.39370080828666687,
        0.0,
        0.39370080828666687,
        -2.3466341758648923e-08,
        -1.8773117460568756e-07,
        0.0,
        1.5502678155899048,
        -2.183518171310425,
        1.0393342971801758,
        1.0
      ],
      "children": [
        11,
        13,
        3,
        35,
        9
      ]
    },
    {
      "name": "eye_r",
      "matrix": [
        -0.387398362159729,
        -0.03205135464668274,
        -0.06241408362984657,
        0.0,
        -0.03204936534166336,
        0.39238572120666504,
        -0.0025734673254191875,
        0.0,
        0.062415096908807755,
        0.002548572374507785,
        -0.3887134790420532,
        0.0,
        -5.2742950629181e-07,
        6.740471008015447e-07,
        -8.026918152381768e-08,
        1.0
      ],
      "children": [
        34
      ]
    },
    {
      "name": "eye_r_deform",
      "matrix": [
        2.3466574461394885e-08,
        0.39370080828666687,
        1.1107479735983361e-07,
        0.0,
        1.8773117460568756e-07,
        -1.110747831489789e-07,
        0.39370080828666687,
        0.0,
        0.39370080828666687,
        -2.3466341758648923e-08,
        -1.8773117460568756e-07,
        0.0,
        1.550270915031433,
        -2.183509588241577,
        -1.0393109321594238,
        1.0
      ],
      "children": [
        5,
        12,
        14,
        36,
        10
      ]
    },
    {
      "name": "eyebrow_l",
      "matrix": [
        -4.961041000228761e-08,
        0.39370080828666687,
        -2.41920545818175e-08,
        0.0,
        -0.24692776799201965,
        -5.139265724096731e-08,
        -0.306638240814209,
        0.0,
        -0.3066382110118866,
        -2.6405352571146068e-08,
        0.24692770838737488,
        0.0,
        -0.2214593142271042,
        -2.8444902896881104,
        0.1783362627029419,
        1.0
      ]
    },
    {
      "name": "eyebrow_r",
      "matrix": [
        2.3694950357366906e-07,
        0.39370080828666687,
        1.2666909299241524e-07,
        0.0,
        0.24692922830581665,
        -5.033736272253009e-08,
        -0.3066370487213135,
        0.0,
        -0.3066370487213135,
        2.6828888621821534e-07,
        -0.24692922830581665,
        0.0,
        -0.2214609533548355,
        -2.8444900512695312,
        -0.17833760380744934,
        1.0
      ]
    },
    {
      "name": "eyecrow_l",
      "matrix": [
        -0.301942378282547,
        -0.0029430987779051065,
        0.2526310980319977,
        0.0,
        -0.005012420937418938,
        0.39366641640663147,
        -0.0014046790311113,
        0.0,
        -0.25259852409362793,
        -0.004293684381991625,
        -0.30195343494415283,
        0.0,
        2.378173828125,
        0.0819554552435875,
        -0.5645663738250732,
        1.0
      ]
    },
    {
      "name": "eyecrow_r",
      "matrix": [
        -0.3019421398639679,
        -0.0027797322254627943,
        -0.2526332139968872,
        0.0,
        -0.00498766265809536,
        0.3936658203601837,
        0.0016296417452394962,
        0.0,
        0.25259923934936523,
        0.004450350534170866,
        -0.3019505441188812,
        0.0,
        2.3781611919403076,
        0.08167724311351776,
        0.5646315217018127,
        1.0
      ]
    },
    {
      "name": "eyelid_lower_l",
      "matrix": [
        -0.30653059482574463,
        -0.23132309317588806,
        0.08676950633525848,
        0.0,
        -0.23121269047260284,
        0.317318856716156,
        0.02915083058178425,
        0.0,
        -0.08706321567296982,
        -0.02826152928173542,
        -0.3829120397567749,
        0.0,
        -4.312513738113921e-06,
        6.513366770377615e-07,
        5.647647185469395e-07,
        1.0
      ]
    },
    {
      "name": "eyelid_lower_r",
      "matrix": [
        -0.3065255284309387,
        -0.231306254863739,
        -0.08683215081691742,
        0.0,
        -0.23121285438537598,
        0.3173238933086395,
        -0.029094869270920753,
        0.0,
        0.0870807021856308,
        0.02834230847656727,
        -0.38290199637413025,
        0.0,
        -5.928603513893904e-06,
        1.5506267345699598e-06,
        -4.980956873623654e-07,
        1.0
      ]
    },
    {
      "name": "eyelid_upper_l",
      "matrix": [
        -0.3670077621936798,
        0.1155417338013649,
        0.08340094238519669,
        0.0,
        0.11562363058328629,
        0.3761388957500458,
        -0.012289609760046005,
        0.0,
        -0.08328735083341599,
        0.013037154451012611,
        -0.38456931710243225,
        0.0,
        1.016859869196196e-06,
        9.290064895139949e-07,
        -1.887305245418247e-07,
        1.0
      ]
    },
    {
      "name": "eyelid_upper_r",
      "matrix": [
        -0.3670036494731903,
        0.11563059687614441,
        -0.08329616487026215,
        0.0,
        0.11563457548618317,
        0.3761238157749176,
        0.01264298614114523,
        0.0,
        0.08329062163829803,
        -0.012679415754973888,
        -0.3845805823802948,
        0.0,
        -6.9841275944781955e-06,
        1.6720443909434834e-06,
        -7.134610200409952e-07,
        1.0
      ]
    },
    {
      "name": "face_l",
      "matrix": [
        0.010363304987549782,
        0.3935644030570984,
        -4.755722693516873e-05,
        0.0,
        -0.2920369505882263,
        0.007657995913177729,
        -0.26392441987991333,
        0.0,
        -0.2638319730758667,
        0.0069825113750994205,
        0.29213735461235046,
        0.0,
        -0.4044051766395569,
        -0.3583802282810211,
        0.43546026945114136,
        1.0
      ]
    },
    {
      "name": "face_r",
      "matrix": [
        0.010363534092903137,
        0.39356452226638794,
        4.714845636044629e-05,
        0.0,
        0.29203706979751587,
        -0.007658474147319794,
        -0.26392391324043274,
        0.0,
        -0.26383155584335327,
        0.006982367020100355,
        -0.29213747382164,
        0.0,
        -0.40279120206832886,
        -0.3584228754043579,
        -0.4369190037250519,
        1.0
      ]
    },
    {
      "name": "faceroot",
      "matrix": [
        0.3809961974620819,
        1.0959212204397772e-07,
        -0.09920800477266312,
        0.0,
        -6.9375966729485084e-15,
        -0.39370083808898926,
        -4.3490950929481187e-07,
        0.0,
        -0.09920800477266312,
        4.208750965517538e-07,
        -0.3809961974620819,
        0.0,
        0.0028950870037078857,
        2.6672134936234215e-06,
        1.038757562637329,
        1.0
      ],
      "children": [
        32,
        6,
        4,
        28,
        25,
        24,
        15,
        16,
        18,
        19,
        7,
        8,
        37,
        38,
        1,
        2,
        26,
        27,
        30,
        31,
        29
      ]
    },
    {
      "name": "glabella_l",
      "matrix": [
        -4.8935390850601834e-08,
        0.39370080828666687,
        -3.258657699234391e-08,
        0.0,
        -0.21336045861244202,
        -4.8335497382367976e-08,
        -0.3308740258216858,
        0.0,
        -0.3308740258216858,
        -3.1656394838819324e-08,
        0.21336045861244202,
        0.0,
        -1.5515925884246826,
        -2.8342864513397217,
        1.0005278587341309,
        1.0
      ]
    },
    {
      "name": "glabella_r",
      "matrix": [
        -5.460405816393177e-08,
        0.39370080828666687,
        -9.935207145872482e-08,
        0.0,
        0.21335721015930176,
        -4.709432133154223e-08,
        -0.3308761715888977,
        0.0,
        -0.3308761715888977,
        -1.0017270568596359e-07,
        -0.21335719525814056,
        0.0,
        -1.551602840423584,
        -2.834286689758301,
        -1.0005112886428833,
        1.0
      ]
    },
    {
      "name": "jaw",
      "matrix": [
        -0.27625852823257446,
        6.4191053752438165e-06,
        0.2805022895336151,
        0.0,
        0.2805022597312927,
        -2.7553670634006266e-07,
        0.27625855803489685,
        0.0,
        4.700578301708447e-06,
        0.3937007784843445,
        -4.380115569802001e-06,
        0.0,
        -4.2466862737455813e-07,
        -3.9600610984846796e-11,
        -4.1824384311439644e-07,
        1.0
      ],
      "children": [
        21
      ]
    },
    {
      "name": "jaw_end",
      "matrix": [
        0.3936997950077057,
        0.00021463549637701362,
        -1.0097106724060723e-06,
        0.0,
        -0.0002146356418961659,
        0.3936997950077057,
        -6.123467028373852e-05,
        0.0,
        9.646898888604483e-07,
        6.123515777289867e-05,
        0.39370009303092957,
        0.0,
        -1.5703654289245605,
        -0.0009759673848748207,
        -3.052451938856393e-05,
        1.0
      ]
    },
    {
      "name": "lip_lower_l",
      "matrix": [
        -2.4381270691264945e-07,
        0.39370080828666687,
        -4.2993895021936623e-07,
        0.0,
        0.3277663588523865,
        -2.88138757298384e-08,
        -0.2181043028831482,
        0.0,
        -0.2181043177843094,
        -4.960443220625166e-07,
        -0.3277663588523865,
        0.0,
        -1.5865553617477417,
        0.7593191862106323,
        0.827295184135437,
        1.0
      ]
    },
    {
      "name": "lip_lower_r",
      "matrix": [
        1.1468772527223337e-06,
        0.39370065927505493,
        -1.236393131875957e-06,
        0.0,
        0.3277663588523865,
        -2.78085479976653e-07,
        0.21810457110404968,
        0.0,
        0.2181044965982437,
        -1.6656672414683271e-06,
        -0.32776641845703125,
        0.0,
        -1.586493968963623,
        0.7593210935592651,
        -0.8273852467536926,
        1.0
      ]
    },
    {
      "name": "lip_upper_l",
      "matrix": [
        -0.22029751539230347,
        0.31028658151626587,
        -0.10095188021659851,
        0.0,
        -0.16821643710136414,
        -0.21236993372440338,
        -0.2856612801551819,
        0.0,
        -0.2795935571193695,
        -0.11670958995819092,
        0.2514091432094574,
        0.0,
        -1.647011160850525,
        -1.1873164176940918,
        1.574413776397705,
        1.0
      ]
    },
    {
      "name": "lip_upper_r",
      "matrix": [
        -0.22029715776443481,
        0.31028735637664795,
        0.1009521335363388,
        0.0,
        0.1682165116071701,
        0.2123703956604004,
        -0.2856611907482147,
        0.0,
        -0.27959373593330383,
        -0.11670941859483719,
        -0.2514090836048126,
        0.0,
        -1.6469918489456177,
        -1.1873164176940918,
        -1.574411392211914,
        1.0
      ]
    },
    {
      "name": "mouth_l",
      "matrix": [
        -6.93597428380599e-07,
        0.3937007784843445,
        -3.8805183066870086e-07,
        0.0,
        -0.20640265941619873,
        -6.926442210897221e-07,
        -0.335258424282074,
        0.0,
        -0.33525845408439636,
        -3.8650512124149827e-07,
        0.20640264451503754,
        0.0,
        -1.1110795736312866,
        -0.29089102149009705,
        0.6840389966964722,
        1.0
      ]
    },
    {
      "name": "mouth_r",
      "matrix": [
        -6.128749419076485e-08,
        0.39370080828666687,
        -1.0187417132101473e-07,
        0.0,
        0.20640423893928528,
        -5.916646372838841e-08,
        -0.33525756001472473,
        0.0,
        -0.3352575898170471,
        -1.0531920224821079e-07,
        -0.2064041942358017,
        0.0,
        -1.1110769510269165,
        -0.2908901274204254,
        -0.6840442419052124,
        1.0
      ]
    },
    {
      "name": "mouthopen",
      "matrix": [
        0.39370080828666687,
        8.21323524746731e-08,
        5.556819004937097e-08,
        0.0,
        -5.556819004937097e-08,
        1.235891602391348e-07,
        0.39370080828666687,
        0.0,
        8.213236668552781e-08,
        -0.39370080828666687,
        1.2358923129340837e-07,
        0.0,
        -0.8910936713218689,
        -0.618238091468811,
        -4.1994621824414935e-07,
        1.0
      ],
      "children": [
        20,
        39,
        22,
        23
      ]
    },
    {
      "name": "nose",
      "matrix": [
        0.3621346056461334,
        0.15424707531929016,
        -0.008170515298843384,
        0.0,
        0.0004907301045022905,
        0.019676271826028824,
        0.3932083547115326,
        0.0,
        0.1544625610113144,
        -0.36169183254241943,
        0.017906393855810165,
        0.0,
        -0.10979998111724854,
        -3.2033238410949707,
        0.16042616963386536,
        1.0
      ]
    },
    {
      "name": "nose_l",
      "matrix": [
        -3.647368203019141e-07,
        0.39370080828666687,
        -1.891009731025406e-07,
        0.0,
        -0.22288985550403595,
        -3.639914893938112e-07,
        -0.32453110814094543,
        0.0,
        -0.32453110814094543,
        -1.9837895592900168e-07,
        0.22288985550403595,
        0.0,
        -1.6272271871566772,
        -0.9726725816726685,
        1.1175898313522339,
        1.0
      ]
    },
    {
      "name": "nose_r",
      "matrix": [
        -5.7674622411241216e-08,
        0.39370080828666687,
        8.398018280786346e-08,
        0.0,
        0.22288113832473755,
        1.0394516891665262e-07,
        -0.324537068605423,
        0.0,
        -0.324537068605423,
        1.4451173591112365e-08,
        -0.22288115322589874,
        0.0,
        -1.6272575855255127,
        -0.9726715087890625,
        -1.1175463199615479,
        1.0
      ]
    },
    {
      "name": "nosehead",
      "matrix": [
        -0.3740883767604828,
        -3.0940688588998455e-07,
        0.12271220982074738,
        0.0,
        -3.87209894370244e-07,
        0.3937007784843445,
        -1.8773127408167056e-07,
        0.0,
        -0.12271220982074738,
        -2.990682332892902e-07,
        -0.3740883767604828,
        0.0,
        0.3872150778770447,
        -6.879113243485335e-06,
        -3.185789108276367,
        1.0
      ]
    },
    {
      "name": "pupil_l",
      "matrix": [
        0.3922097980976105,
        0.010277324356138706,
        0.03264397010207176,
        0.0,
        -0.010241560637950897,
        0.3935679793357849,
        -0.0008559495327062905,
        0.0,
        -0.03265510872006416,
        3.5254040540166898e-06,
        0.3923444449901581,
        0.0,
        -0.6292036771774292,
        0.0007064563687890768,
        -1.1064112186431885e-06,
        1.0
      ]
    },
    {
      "name": "pupil_r",
      "matrix": [
        0.39369967579841614,
        -2.1584771747740206e-09,
        -3.63726741170467e-07,
        0.0,
        -1.2419613115710604e-09,
        0.3937017321586609,
        -4.693639766628621e-06,
        0.0,
        3.754599049443641e-07,
        4.693823029811028e-06,
        0.39369937777519226,
        0.0,
        -0.6292058229446411,
        -2.857612116713426e-06,
        -2.1008615931350505e-06,
        1.0
      ]
    },
    {
      "name": "ridge_l",
      "matrix": [
        -0.3715347647666931,
        -1.4987855934123218e-07,
        0.13023915886878967,
        0.0,
        -1.3091680273191741e-07,
        0.39370080828666687,
        6.988700107513068e-08,
        0.0,
        -0.13023915886878967,
        2.4344460669567525e-08,
        -0.3715347647666931,
        0.0,
        0.5334477424621582,
        0.30901649594306946,
        0.798130452632904,
        1.0
      ]
    },
    {
      "name": "ridge_r",
      "matrix": [
        -0.37153470516204834,
        1.3810797838686995e-08,
        -0.1302393078804016,
        0.0,
        -4.2331276262075335e-09,
        0.39370080828666687,
        4.7543888825885006e-08,
        0.0,
        0.1302393078804016,
        4.406754072761032e-08,
        -0.37153470516204834,
        0.0,
        0.533447265625,
        0.3091866672039032,
        -0.7981261014938354,
        1.0
      ]
    },
    {
      "name": "smile_l",
      "matrix": [
        -5.5184671055030776e-08,
        0.3937007784843445,
        -4.131048569888662e-08,
        0.0,
        -0.15051238238811493,
        -6.261760177039832e-08,
        -0.3637942969799042,
        0.0,
        -0.3637942969799042,
        -4.393086072695951e-08,
        0.15051241219043732,
        0.0,
        -0.4410613477230072,
        -1.2582545280456543,
        0.1824803501367569,
        1.0
      ]
    },
    {
      "name": "smile_r",
      "matrix": [
        -5.865519270287223e-08,
        0.3937007784843445,
        -8.840971332801928e-08,
        0.0,
        0.15051394701004028,
        -5.935353186714565e-08,
        -0.3637937009334564,
        0.0,
        -0.36379361152648926,
        -9.439432346880494e-08,
        -0.15051399171352386,
        0.0,
        -0.44106024503707886,
        -1.2582541704177856,
        -0.18248143792152405,
        1.0
      ]
    },
    {
      "name": "tongue",
      "matrix": [
        -0.07554183900356293,
        -2.4345736164832488e-06,
        0.3863855004310608,
        0.0,
        0.3863855004310608,
        3.749202335256996e-07,
        0.07554183900356293,
        0.0,
        -8.350907592102885e-07,
        0.39370083808898926,
        2.3173988665803336e-06,
        0.0,
        -0.6363538503646851,
        -2.7227063128520967e-06,
        0.3142804503440857,
        1.0
      ]
    }
  ],
  "meshes": [
    {
      "primitives": [
        {
          "attributes": {
            "POSITION": 0,
            "NORMAL": 1,
            "TEXCOORD_0": 2,
            "COLOR_0": 3,
            "JOINTS_0": 4,
            "WEIGHTS_0": 5
          },
          "indices": 6,
          "material": 0
        }
      ]
    }
  ],
  "materials": [
    {
      "pbrMetallicRoughness": {
        "baseColorFactor": [
          1.0,
          1.0,
          1.0,
          1.0
        ],
        "metallicFactor": 0.0,
        "roughnessFactor": 1.0
      }
    }
  ],
  "accessors": [
    {
      "bufferView": 0,
      "componentType": 5126,
      "count": 4649,
      "type": "VEC3",
      "min": [
        -0.6706390380859375,
        -7.414198398590088,
        -7.6627516746521
      ],
      "max": [
        16.947059631347656,
        7.414198398590088,
        9.326253890991211
      ]
    },
    {
      "bufferView": 1,
      "componentType": 5126,
      "count": 4649,
      "type": "VEC3"
    },
    {
      "bufferView": 2,
      "componentType": 5126,
      "count": 4649,
      "type": "VEC2"
    },
    {
      "bufferView": 3,
      "componentType": 5126,
      "count": 4649,
      "type": "VEC4"
    },
    {
      "bufferView": 4,
      "componentType": 5123,
      "count": 4649,
      "type": "VEC4"
    },
    {
      "bufferView": 5,
      "componentType": 5126,
      "count": 4649,
      "type": "VEC4"
    },
    {
      "bufferView": 6,
      "componentType": 5125,
      "count": 24027,
      "type": "SCALAR"
    },
    {
      "bufferView": 7,
      "componentType": 5126,
      "count": 39,
      "type": "MAT4"
    }
  ],
  "bufferViews": [
    {
      "buffer": 0,
      "byteOffset": 0,
      "byteLength": 55788,
      "target": 34962
    },
    {
      "buffer": 0,
      "byteOffset": 55788,
      "byteLength": 55788,
      "target": 34962
    },
    {
      "buffer": 0,
      "byteOffset": 111576,
      "byteLength": 37192,
      "target": 34962
    },
    {
      "buffer": 0,
      "byteOffset": 148768,
      "byteLength": 74384,
      "target": 34962
    },
    {
      "buffer": 0,
      "byteOffset": 223152,
      "byteLength": 37192,
      "target": 34962
    },
    {
      "buffer": 0,
      "byteOffset": 260344,
      "byteLength": 74384,
      "target": 34962
    },
    {
      "buffer": 0,
      "byteOffset": 334728,
      "byteLength": 96108,
      "target": 34963
    },
    {
      "buffer": 0,
      "byteOffset": 430836,
      "byteLength": 2496
    }
  ],
  "buffers": [
    {
      "byteLength": 433332,
      "uri": "f1_new_face.bin"
    }
  ],
  "skins": [
    {
      "joints": [
        1,
        2,
        3,
        4,
        5,
        6,
        7,
        8,
        9,
        10,
        11,
        12,
        13,
        14,
        15,
        16,
        17,
        18,
        19,
        20,
        21,
        22,
        23,
        24,
        25,
        26,
        27,
        28,
        29,
        30,
        31,
        32,
        33,
        34,
        35,
        36,
        37,
        38,
        39
      ],
      "inverseBindMatrices": 7
    }
  ]
}