{
  "asset": {
    "version": "2.0",
    "generator": "Zongine Converter"
  },
  "scenes": [
    {
      "nodes": [
        0
      ]
    }
  ],
  "scene": 0,
  "nodes": [
    {
      "mesh": 0,
      "skin": 0
    },
    {
      "name": "b_hat",
      "matrix": [
        4.072521875286839e-09,
        0.6561683416366577,
        -6.249533726077061e-07,
        0.0,
        0.6536576747894287,
        -4.98812120497405e-08,
        -0.05734787881374359,
        0.0,
        -0.057347867637872696,
        -6.251912623156386e-07,
        -0.6536574959754944,
        0.0,
        -72.47555541992188,
        0.00032550940522924066,
        4.132906913757324,
        1.000000238418579
      ],
      "extras": {
        "invPxPose": [
          1,
          0,
          0,
          0,
          0,
          1,
          0,
          0,
          0,
          0,
          1,
          0,
          0,
          0,
          0,
          1
        ]
      }
    },
    {
      "name": "bip01 head",
      "matrix": [
        1.3009274368869228e-07,
        0.3937007486820221,
        -5.923672574681405e-07,
        0.0,
        0.38099610805511475,
        -2.751639556208829e-07,
        -0.09920765459537506,
        0.0,
        -0.09920768439769745,
        -5.404697844824113e-07,
        -0.38099610805511475,
        0.0,
        -37.25117492675781,
        2.746866266534198e-05,
        10.022381782531738,
        0.9999998211860657
      ],
      "extras": {
        "invPxPose": [
          1,
          0,
          0,
          0,
          0,
          1,
          0,
          0,
          0,
          0,
          1,
          0,
          0,
          0,
          0,
          1
        ]
      }
    },
    {
      "name": "Socket_s_hat\u0000\u0013\u0000b\u0000\u0000\u0000\u0013\u0000b\u0000\u0000\u00009t\u0015",
      "matrix": [
        0.3937007784843445,
        1.5736057391895408e-15,
        1.6093415489137897e-09,
        0.0,
        -1.5736057391895408e-15,
        0.3937007784843445,
        9.711734183775328e-15,
        0.0,
        -1.6093415489137897e-09,
        -9.711734183775328e-15,
        0.3937007784843445,
        0.0,
        -6.826762444234191e-08,
        -8.466084604197288e-12,
        4.257077534930431e-08,
        1.0
      ],
      "extras": {
        "parent": "b_hat"
      }
    },
    {
      "name": "Socket_s_face\u0000\u0000b\u0000\u0000\u0000\u0013\u0000b\u0000\u0000\u00009t\u0015",
      "matrix": [
        0.3937007784843445,
        -1.2837493557071866e-07,
        3.702057682630766e-08,
        0.0,
        1.2837635665619018e-07,
        0.3937007486820221,
        -3.3983088343347845e-08,
        0.0,
        -3.7020804199983104e-08,
        3.459521735749149e-08,
        0.39370080828666687,
        0.0,
        -1.8914112160928198e-06,
        -1.8859473444737818e-12,
        -1.1570693203566407e-07,
        1.0
      ],
      "extras": {
        "parent": "bip01 head"
      }
    },
    {
      "name": "Socket_s_fxtop\u0000b\u0000\u0000\u0000\u0013\u0000b\u0000\u0000\u00009t\u0015",
      "matrix": [
        8.077609692236365e-08,
        0.23622046411037445,
        -3.5912756857214845e-07,
        0.0,
        0.2285977154970169,
        -1.574318702068922e-07,
        -0.05952461063861847,
        0.0,
        -0.05952463299036026,
        -3.3694433909658983e-07,
        -0.2285977602005005,
        0.0,
        12.318689346313477,
        1.8460128558217548e-05,
        -0.28903692960739136,
        1.0
      ],
      "extras": {
        "parent": "bip01 head"
      }
    }
  ],
  "meshes": [
    {
      "primitives": [
        {
          "attributes": {
            "POSITION": 0,
            "NORMAL": 1,
            "TEXCOORD_0": 2,
            "JOINTS_0": 3,
            "WEIGHTS_0": 4
          },
          "indices": 5,
          "material": 0
        }
      ]
    }
  ],
  "materials": [
    {
      "pbrMetallicRoughness": {
        "baseColorFactor": [
          1.0,
          1.0,
          1.0,
          1.0
        ],
        "metallicFactor": 0.0,
        "roughnessFactor": 1.0
      },
      "name": "Material_0"
    }
  ],
  "accessors": [
    {
      "bufferView": 0,
      "componentType": 5126,
      "count": 4,
      "type": "VEC3",
      "min": [
        -0.2663615345954895,
        108.44401550292969,
        -3.4493700695747975e-06
      ],
      "max": [
        0.41368216276168823,
        109.52271270751953,
        -3.386018534001778e-06
      ]
    },
    {
      "bufferView": 1,
      "componentType": 5126,
      "count": 4,
      "type": "VEC3"
    },
    {
      "bufferView": 2,
      "componentType": 5126,
      "count": 4,
      "type": "VEC2"
    },
    {
      "bufferView": 3,
      "componentType": 5123,
      "count": 4,
      "type": "VEC4"
    },
    {
      "bufferView": 4,
      "componentType": 5126,
      "count": 4,
      "type": "VEC4"
    },
    {
      "bufferView": 5,
      "componentType": 5125,
      "count": 6,
      "type": "SCALAR"
    },
    {
      "bufferView": 6,
      "componentType": 5126,
      "count": 2,
      "type": "MAT4"
    }
  ],
  "bufferViews": [
    {
      "buffer": 0,
      "byteOffset": 0,
      "byteLength": 48,
      "target": 34962
    },
    {
      "buffer": 0,
      "byteOffset": 48,
      "byteLength": 48,
      "target": 34962
    },
    {
      "buffer": 0,
      "byteOffset": 96,
      "byteLength": 32,
      "target": 34962
    },
    {
      "buffer": 0,
      "byteOffset": 128,
      "byteLength": 32,
      "target": 34962
    },
    {
      "buffer": 0,
      "byteOffset": 160,
      "byteLength": 64,
      "target": 34962
    },
    {
      "buffer": 0,
      "byteOffset": 224,
      "byteLength": 24,
      "target": 34963
    },
    {
      "buffer": 0,
      "byteOffset": 248,
      "byteLength": 128
    }
  ],
  "buffers": [
    {
      "byteLength": 376,
      "uri": "F1_0000_head.bin"
    }
  ],
  "skins": [
    {
      "joints": [
        1,
        2
      ],
      "inverseBindMatrices": 6
    }
  ]
}