{
  "asset": {
    "version": "2.0",
    "generator": "Zongine Converter"
  },
  "scenes": [
    {
      "nodes": [
        0
      ]
    }
  ],
  "scene": 0,
  "nodes": [
    {
      "mesh": 0,
      "skin": 0
    },
    {
      "name": "add_r501",
      "matrix": [
        0.3936726152896881,
        0.003339191433042288,
        0.0033241561613976955,
        0.0,
        -0.0033391923643648624,
        0.3936866521835327,
        -1.4044760064280126e-05,
        0.0,
        -0.0033241433557122946,
        -1.4150250535749365e-05,
        0.39368680119514465,
        0.0,
        -1.8991598835782497e-06,
        -1.614298916763346e-08,
        -9.697448604129022e-07,
        1.0
      ],
      "extras": {
        "invPxPose": [
          -0.1324159950017929,
          0.01564091071486473,
          -0.37043455243110657,
          0.0,
          -0.3675811290740967,
          0.04589666426181793,
          0.1333339661359787,
          0.0,
          0.048481397330760956,
          0.3907035291194916,
          -0.0008334974409081042,
          0.0,
          24.781328201293945,
          -1.9753729104995728,
          -12.280380249023438,
          1.0
        ]
      }
    },
    {
      "name": "add_l501",
      "matrix": [
        0.39367252588272095,
        -0.0033448445610702038,
        0.0033297522459179163,
        0.0,
        0.0033448415342718363,
        0.39368659257888794,
        1.4170813301461749e-05,
        0.0,
        -0.0033297643531113863,
        1.411813991580857e-05,
        0.3936867117881775,
        0.0,
        -1.6131593838508707e-08,
        6.83976625337479e-11,
        1.907280420709867e-06,
        1.0
      ],
      "extras": {
        "invPxPose": [
          0.13241085410118103,
          0.015641145408153534,
          0.37043631076812744,
          0.0,
          -0.36758366227149963,
          -0.04589076712727547,
          0.1333288848400116,
          0.0,
          0.048475947231054306,
          -0.3907042145729065,
          -0.0008305928786285222,
          0.0,
          24.774951934814453,
          1.9750087261199951,
          -12.2800931930542,
          1.0
        ]
      }
    },
    {
      "name": "bip01 pelvis",
      "matrix": [
        7.571711812225101e-13,
        -5.459843919197738e-07,
        0.39370080828666687,
        0.0,
        0.39370080828666687,
        5.459843350763549e-07,
        0.0,
        0.0,
        -5.459843350763549e-07,
        0.39370080828666687,
        5.459843919197738e-07,
        0.0,
        -0.0,
        -0.0,
        -0.0,
        1.0
      ],
      "extras": {
        "invPxPose": [
          -5.459843350763549e-07,
          0.39370080828666687,
          1.0622451327435556e-06,
          0.0,
          0.39370080828666687,
          5.459843350763549e-07,
          0.0,
          0.0,
          -1.473121646368425e-12,
          1.0622451327435556e-06,
          -0.39370080828666687,
          0.0,
          -25.3537654876709,
          -3.4243017580593005e-05,
          -0.33464565873146057,
          1.0
        ]
      },
      "children": [
        4
      ]
    },
    {
      "name": "bip01 spine",
      "matrix": [
        0.3871142864227295,
        -8.481865165776981e-07,
        -0.07171351462602615,
        0.0,
        5.427527298706991e-07,
        0.39370080828666687,
        -1.7266528402615222e-06,
        0.0,
        0.07171351462602615,
        1.59890305440058e-06,
        0.3871142864227295,
        0.0,
        -2.4192826747894287,
        1.8933620822281227e-06,
        0.4498842656612396,
        1.0
      ],
      "extras": {
        "invPxPose": [
          1.9939297146720492e-07,
          0.39370080828666687,
          -5.827264999425097e-07,
          0.0,
          0.3871142864227295,
          -3.022021530796337e-07,
          -0.07171351462602615,
          0.0,
          -0.07171351462602615,
          -5.366578079701867e-07,
          -0.3871142864227295,
          0.0,
          -27.40984344482422,
          2.0913266780553386e-05,
          4.739084720611572,
          1.0
        ]
      },
      "children": [
        5
      ]
    },
    {
      "name": "bip01 spine1",
      "matrix": [
        0.38871151208877563,
        2.6736458380582917e-07,
        0.062479425221681595,
        0.0,
        -2.638579132963059e-07,
        0.3937007486820221,
        -4.31670272860174e-08,
        0.0,
        -0.062479425221681595,
        7.461733453340003e-10,
        0.38871151208877563,
        0.0,
        -2.119748592376709,
        -1.4534941783495015e-06,
        -0.3390886187553406,
        1.0
      ],
      "extras": {
        "invPxPose": [
          2.5485535459779385e-08,
          0.39370080828666687,
          -5.868654398000217e-07,
          0.0,
          0.3935892581939697,
          -3.944643367503886e-08,
          -0.00937055516988039,
          0.0,
          -0.00937055516988039,
          -5.860924829903524e-07,
          -0.3935892581939697,
          0.0,
          -29.934316635131836,
          8.54562586027896e-07,
          -0.009941041469573975,
          1.0
        ]
      },
      "children": [
        6
      ]
    },
    {
      "name": "bip01 spine2",
      "matrix": [
        0.38992154598236084,
        2.3276925276149996e-07,
        0.05441998317837715,
        0.0,
        -2.3221979006393667e-07,
        0.39370080828666687,
        -2.0101666109439975e-08,
        0.0,
        -0.05441998317837715,
        -1.2190290554769945e-08,
        0.38992154598236084,
        0.0,
        -2.0252015590667725,
        -1.200245606014505e-06,
        -0.27950364351272583,
        1.0
      ],
      "extras": {
        "invPxPose": [
          -1.2585842057433183e-07,
          0.39370080828666687,
          -5.97810753788508e-07,
          0.0,
          0.3911062777042389,
          1.9354696689788398e-07,
          0.04512394964694977,
          0.0,
          0.04512394964694977,
          -5.794457820229582e-07,
          -0.3911062777042389,
          0.0,
          -31.670791625976562,
          -1.8043554518953897e-05,
          -4.427071571350098,
          1.0
        ]
      }
    },
    {
      "name": "add_l101",
      "matrix": [
        0.3937007486820221,
        2.9332991591246582e-09,
        -0.0,
        0.0,
        0.0,
        0.39370080828666687,
        0.0,
        0.0,
        -0.0,
        2.291639621121444e-11,
        0.3937006890773773,
        0.0,
        -0.0,
        -9.5367431640625e-07,
        -0.0,
        1.0
      ],
      "extras": {
        "invPxPose": [
          0.04041815176606178,
          -0.39162057638168335,
          9.760327520780265e-05,
          0.0,
          -0.3916139602661133,
          -0.040416937321424484,
          0.0022728622425347567,
          0.0,
          -0.002250832738354802,
          -0.0003304228885099292,
          -0.393694132566452,
          0.0,
          27.69839859008789,
          4.695827484130859,
          -3.6820411682128906,
          1.0
        ]
      },
      "children": [
        8
      ]
    },
    {
      "name": "add_l102",
      "matrix": [
        0.393555611371994,
        -0.010678823105990887,
        0.0005286671221256256,
        0.0,
        0.01067900750786066,
        0.3935559093952179,
        -0.00012790571781806648,
        0.0,
        -0.0005250035901553929,
        0.00014219846343621612,
        0.39370042085647583,
        0.0,
        -5.042352199554443,
        0.13682027161121368,
        -0.0067722490057349205,
        1.0
      ],
      "extras": {
        "invPxPose": [
          0.029780540615320206,
          -0.3925727903842926,
          0.0002791071601677686,
          0.0,
          -0.3925689458847046,
          -0.02977902814745903,
          0.0017601263243705034,
          0.0,
          -0.0017339711776003242,
          -0.0004114453913643956,
          -0.3936968147754669,
          0.0,
          22.778120040893555,
          4.078293323516846,
          -3.6531434059143066,
          1.0
        ]
      },
      "children": [
        15
      ]
    },
    {
      "name": "add_l401",
      "matrix": [
        0.39370080828666687,
        -0.0,
        -0.0,
        0.0,
        -5.866599206427736e-09,
        0.39370080828666687,
        1.466649801606934e-09,
        0.0,
        -2.3466396825710945e-08,
        2.933299603213868e-09,
        0.39370080828666687,
        0.0,
        1.9073486328125e-06,
        1.9073486328125e-06,
        7.105427357601002e-15,
        1.0
      ],
      "extras": {
        "invPxPose": [
          0.06274209916591644,
          0.38849982619285583,
          0.011473500169813633,
          0.0,
          -0.3613361418247223,
          0.054023031145334244,
          0.14669038355350494,
          0.0,
          0.14317812025547028,
          -0.03390760347247124,
          0.3651721179485321,
          0.0,
          24.882017135620117,
          -5.521853923797607,
          -11.603153228759766,
          1.0
        ]
      },
      "children": [
        10
      ]
    },
    {
      "name": "add_l402",
      "matrix": [
        0.4336613118648529,
        0.0157571192830801,
        0.12093083560466766,
        0.0,
        -0.03447975218296051,
        0.3903998136520386,
        0.04126131907105446,
        0.0,
        -0.13700824975967407,
        -0.04837396368384361,
        0.37238892912864685,
        0.0,
        -4.355772018432617,
        -0.1582670658826828,
        -1.2146490812301636,
        1.0
      ],
      "extras": {
        "invPxPose": [
          0.031093360856175423,
          0.3863438367843628,
          0.07084079086780548,
          0.0,
          -0.4537912607192993,
          0.021084455773234367,
          0.03342196345329285,
          0.0,
          0.03360000252723694,
          -0.07276151329278946,
          0.3858301639556885,
          0.0,
          27.57326889038086,
          -3.2122905254364014,
          -5.125540733337402,
          1.0
        ]
      },
      "children": [
        17
      ]
    },
    {
      "name": "add_r101",
      "matrix": [
        0.39370080828666687,
        2.4639723505970323e-07,
        -1.2869843146745552e-07,
        0.0,
        -2.493304123163398e-07,
        0.39370080828666687,
        1.2830902562654956e-07,
        0.0,
        1.286986019977121e-07,
        -1.2830885509629297e-07,
        0.39370080828666687,
        0.0,
        -1.9073468138230965e-06,
        -2.8610240860871272e-06,
        -3.0892058659401367e-13,
        1.0
      ],
      "extras": {
        "invPxPose": [
          -0.04153819754719734,
          -0.39150339365005493,
          1.8083826944348402e-05,
          0.0,
          -0.39148688316345215,
          0.041536618024110794,
          0.003612813539803028,
          0.0,
          -0.0035945565905421972,
          0.0003631951112765819,
          -0.39368417859077454,
          0.0,
          27.672040939331055,
          -4.774626731872559,
          -3.777069568634033,
          1.0
        ]
      },
      "children": [
        12
      ]
    },
    {
      "name": "add_r102",
      "matrix": [
        0.39355605840682983,
        0.010678824968636036,
        0.0005286671803332865,
        0.0,
        -0.010679016821086407,
        0.3935559391975403,
        0.00012790576147381216,
        0.0,
        -0.0005250045214779675,
        -0.00014219841978047043,
        0.3937004506587982,
        0.0,
        -5.042359828948975,
        -0.13681986927986145,
        -0.006773205939680338,
        1.0
      ],
      "extras": {
        "invPxPose": [
          -0.030903536826372147,
          -0.392486035823822,
          -0.00016488613619003445,
          0.0,
          -0.39247435331344604,
          0.030901256948709488,
          0.0031006098724901676,
          0.0,
          -0.0030781037639826536,
          0.0004077543271705508,
          -0.39368849992752075,
          0.0,
          22.75404930114746,
          -4.15774393081665,
          -3.748232126235962,
          1.0
        ]
      },
      "children": [
        16
      ]
    },
    {
      "name": "add_r401",
      "matrix": [
        0.39370080828666687,
        -5.866599206427736e-09,
        1.1733198412855472e-08,
        0.0,
        -0.0,
        0.39370080828666687,
        2.933299603213868e-09,
        0.0,
        -0.0,
        1.466649801606934e-09,
        0.39370080828666687,
        0.0,
        1.9073486328125e-06,
        -4.76837158203125e-07,
        5.3290705182007514e-14,
        1.0
      ],
      "extras": {
        "invPxPose": [
          -0.06263852119445801,
          0.38849973678588867,
          -0.012025786563754082,
          0.0,
          -0.3626139760017395,
          -0.05402284115552902,
          0.14350254833698273,
          0.0,
          0.13995665311813354,
          0.033907730132341385,
          0.3664187490940094,
          0.0,
          25.08098602294922,
          5.521834850311279,
          -11.394582748413086,
          1.0
        ]
      },
      "children": [
        14
      ]
    },
    {
      "name": "add_r402",
      "matrix": [
        0.3335707187652588,
        -0.00409089308232069,
        0.1160673052072525,
        0.0,
        0.015299677848815918,
        0.3910587728023529,
        -0.04213810712099075,
        0.0,
        -0.10184148699045181,
        0.045349620282649994,
        0.37383559346199036,
        0.0,
        -3.4332218170166016,
        0.042104266583919525,
        -1.194604754447937,
        1.0
      ],
      "extras": {
        "invPxPose": [
          -0.034863367676734924,
          0.3851583003997803,
          -0.07146696001291275,
          0.0,
          -0.34645208716392517,
          -0.03336266428232193,
          0.03514127805829048,
          0.0,
          0.025114519521594048,
          0.07443297654390335,
          0.3855617344379425,
          0.0,
          20.9792423248291,
          3.953751564025879,
          -5.211099147796631,
          1.0
        ]
      },
      "children": [
        18
      ]
    },
    {
      "name": "fbr4_f12206belt01_01",
      "matrix": [
        0.39369699358940125,
        -0.001125561073422432,
        0.0013452430721372366,
        0.0,
        -0.001125538838095963,
        -0.3936992287635803,
        -1.2449453606677707e-05,
        0.0,
        0.001345274387858808,
        8.604642971477006e-06,
        -0.39369842410087585,
        0.0,
        -4.753697395324707,
        -0.07684441655874252,
        0.2728581130504608,
        1.0
      ],
      "extras": {
        "invPxPose": [
          0.030903520062565804,
          0.392486035823822,
          -0.00016493408475071192,
          0.0,
          -0.392473965883255,
          0.030901266261935234,
          -0.003100549802184105,
          0.0,
          -0.0030780385714024305,
          0.0004077964404132217,
          0.39368852972984314,
          0.0,
          18.000057220458984,
          -4.2203216552734375,
          4.003681182861328,
          1.0
        ]
      }
    },
    {
      "name": "fbr4_f12206belt02_01",
      "matrix": [
        0.39370039105415344,
        -2.93329338596493e-09,
        -3.409957116673468e-08,
        0.0,
        6.45325144432718e-08,
        0.3937007486820221,
        3.4237096713241044e-08,
        0.0,
        3.483289034988957e-08,
        -3.341211396445942e-08,
        0.39370080828666687,
        0.0,
        -4.753970146179199,
        -0.06257575005292892,
        -0.2554507851600647,
        1.0
      ],
      "extras": {
        "invPxPose": [
          -0.030903568491339684,
          -0.392486035823822,
          -0.00016491758287884295,
          0.0,
          -0.3924739360809326,
          0.030901262536644936,
          0.0031006464269012213,
          0.0,
          -0.0030781349632889032,
          0.00040778779657557607,
          -0.39368849992752075,
          0.0,
          18.00005531311035,
          -4.220319747924805,
          -4.003684997558594,
          1.0
        ]
      }
    },
    {
      "name": "fbr4_f12206body03_01",
      "matrix": [
        0.3396701216697693,
        0.01072098221629858,
        0.001456846366636455,
        0.0,
        0.01242346316576004,
        -0.39350399374961853,
        -0.0007559267105534673,
        0.0,
        0.0016631189500913024,
        0.0008087694295682013,
        -0.39369648694992065,
        0.0,
        -5.717490196228027,
        -0.04206092655658722,
        0.20897944271564484,
        1.0
      ],
      "extras": {
        "invPxPose": [
          0.03931673988699913,
          -0.3851584494113922,
          -0.07146676629781723,
          0.0,
          -0.390707403421402,
          -0.033362582325935364,
          -0.035141292959451675,
          0.0,
          0.028322646394371986,
          0.07443271577358246,
          -0.38556191325187683,
          0.0,
          17.94866180419922,
          3.908949851989746,
          5.44266414642334,
          1.0
        ]
      }
    },
    {
      "name": "fbr4_f12206body04_01",
      "matrix": [
        0.44399169087409973,
        -1.422438771214729e-07,
        2.6463855107294876e-08,
        0.0,
        1.2901182344648987e-07,
        0.39370089769363403,
        3.076298753512674e-07,
        0.0,
        -5.6236039824852924e-08,
        -3.287129288764845e-07,
        0.39370080828666687,
        0.0,
        -5.710435390472412,
        -0.04484333097934723,
        -0.23155871033668518,
        1.0
      ],
      "extras": {
        "invPxPose": [
          -0.03931663557887077,
          0.3851584494113922,
          -0.07146666198968887,
          0.0,
          -0.39070746302604675,
          -0.03336257487535477,
          0.0351412333548069,
          0.0,
          0.028322594240307808,
          0.07443266361951828,
          0.3855617940425873,
          0.0,
          17.94867515563965,
          3.908905506134033,
          -5.442652702331543,
          1.0
        ]
      }
    },
    {
      "name": "Socket_s_fxmid\u00003d\\s\u0003\u0000\u0000\u0000\u0000\u0000\u0000\u0000\u000f",
      "matrix": [
        -5.610585418480696e-08,
        0.23622041940689087,
        -3.6000616887577053e-07,
        0.0,
        0.23466359078884125,
        1.4076917409511225e-07,
        0.02707434818148613,
        0.0,
        0.027074364945292473,
        -3.457332411471725e-07,
        -0.2346636801958084,
        0.0,
        1.497507095336914,
        7.62939453125e-06,
        0.5122675895690918,
        1.0
      ],
      "extras": {
        "parent": "bip01 spine2\u0000\u0000\u0000\u00007p\u0000\u0000\u0000\u0000\u0000\u0001"
      }
    }
  ],
  "meshes": [
    {
      "primitives": [
        {
          "attributes": {
            "POSITION": 0,
            "NORMAL": 1,
            "TEXCOORD_0": 2,
            "TANGENT": 3,
            "JOINTS_0": 4,
            "WEIGHTS_0": 5
          },
          "indices": 6,
          "material": 0
        }
      ]
    }
  ],
  "materials": [
    {
      "pbrMetallicRoughness": {
        "baseColorFactor": [
          1.0,
          1.0,
          1.0,
          1.0
        ],
        "metallicFactor": 0.0,
        "roughnessFactor": 1.0
      },
      "name": "Material_0"
    }
  ],
  "accessors": [
    {
      "bufferView": 0,
      "componentType": 5126,
      "count": 1296,
      "type": "VEC3",
      "min": [
        -10.311308860778809,
        29.654541015625,
        -13.912057876586914
      ],
      "max": [
        10.311308860778809,
        77.66000366210938,
        14.77656364440918
      ]
    },
    {
      "bufferView": 1,
      "componentType": 5126,
      "count": 1296,
      "type": "VEC3"
    },
    {
      "bufferView": 2,
      "componentType": 5126,
      "count": 1296,
      "type": "VEC2"
    },
    {
      "bufferView": 3,
      "componentType": 5126,
      "count": 1296,
      "type": "VEC4"
    },
    {
      "bufferView": 4,
      "componentType": 5123,
      "count": 1296,
      "type": "VEC4"
    },
    {
      "bufferView": 5,
      "componentType": 5126,
      "count": 1296,
      "type": "VEC4"
    },
    {
      "bufferView": 6,
      "componentType": 5125,
      "count": 5010,
      "type": "SCALAR"
    },
    {
      "bufferView": 7,
      "componentType": 5126,
      "count": 18,
      "type": "MAT4"
    }
  ],
  "bufferViews": [
    {
      "buffer": 0,
      "byteOffset": 0,
      "byteLength": 15552,
      "target": 34962
    },
    {
      "buffer": 0,
      "byteOffset": 15552,
      "byteLength": 15552,
      "target": 34962
    },
    {
      "buffer": 0,
      "byteOffset": 31104,
      "byteLength": 10368,
      "target": 34962
    },
    {
      "buffer": 0,
      "byteOffset": 41472,
      "byteLength": 20736,
      "target": 34962
    },
    {
      "buffer": 0,
      "byteOffset": 62208,
      "byteLength": 10368,
      "target": 34962
    },
    {
      "buffer": 0,
      "byteOffset": 72576,
      "byteLength": 20736,
      "target": 34962
    },
    {
      "buffer": 0,
      "byteOffset": 93312,
      "byteLength": 20040,
      "target": 34963
    },
    {
      "buffer": 0,
      "byteOffset": 113352,
      "byteLength": 1152
    }
  ],
  "buffers": [
    {
      "byteLength": 114504,
      "uri": "F1_2206_belt.bin"
    }
  ],
  "skins": [
    {
      "joints": [
        1,
        2,
        3,
        4,
        5,
        6,
        7,
        8,
        9,
        10,
        11,
        12,
        13,
        14,
        15,
        16,
        17,
        18
      ],
      "inverseBindMatrices": 7
    }
  ]
}