{
  "asset": {
    "version": "2.0",
    "generator": "Zongine Converter"
  },
  "scenes": [
    {
      "nodes": [
        0
      ]
    }
  ],
  "scene": 0,
  "nodes": [
    {
      "mesh": 0,
      "skin": 0
    },
    {
      "name": "bip01 l calf",
      "matrix": [
        0.39168643951416016,
        7.249424394117909e-10,
        0.03977477550506592,
        0.0,
        -3.699504036447365e-10,
        0.39370083808898926,
        1.380965567593373e-11,
        0.0,
        -0.03977478668093681,
        -1.1968462332312413e-10,
        0.39168649911880493,
        0.0,
        -11.147287368774414,
        -2.0631659936043434e-08,
        -1.1319791078567505,
        1.0
      ],
      "extras": {
        "invPxPose": [
          0.005340988747775555,
          -0.39366310834884644,
          0.0010671352501958609,
          0.0,
          -0.3916551172733307,
          -0.005421402398496866,
          -0.039714209735393524,
          0.0,
          0.039725106209516525,
          -0.0005228229565545917,
          -0.3916911780834198,
          0.0,
          14.077184677124023,
          2.6571478843688965,
          1.0863654613494873,
          1.0
        ]
      },
      "children": [
        2,
        13
      ]
    },
    {
      "name": "bip01 l foot",
      "matrix": [
        0.3916550576686859,
        -0.005341040436178446,
        -0.03972509875893593,
        0.0,
        0.005421401467174292,
        0.39366307854652405,
        0.0005223068874329329,
        0.0,
        0.03971421718597412,
        -0.0010666215093806386,
        0.3916911482810974,
        0.0,
        -11.799104690551758,
        0.1609058529138565,
        1.196768879890442,
        1.0
      ],
      "extras": {
        "invPxPose": [
          3.077154145641331e-14,
          -0.3937007784843445,
          5.162607408237818e-07,
          0.0,
          -0.39370080828666687,
          -2.2566470515698357e-14,
          6.257190321434791e-09,
          0.0,
          -6.257190321434791e-09,
          -5.16260683980363e-07,
          -0.39370080828666687,
          0.0,
          2.3511085510253906,
          2.6238818168640137,
          0.8607017397880554,
          1.0
        ]
      },
      "children": [
        4
      ]
    },
    {
      "name": "bip01 l thigh",
      "matrix": [
        -0.387068510055542,
        -0.005235668737441301,
        0.0717695951461792,
        0.0,
        0.005421774461865425,
        -0.39366304874420166,
        0.0005226230132393539,
        0.0,
        0.0717557743191719,
        0.0015021797735244036,
        0.3871035575866699,
        0.0,
        -2.492314100265503,
        2.274573802947998,
        -0.004382967948913574,
        1.0
      ],
      "extras": {
        "invPxPose": [
          0.00542147271335125,
          -0.39366310834884644,
          0.0005220863968133926,
          0.0,
          -0.3936634957790375,
          -0.005421401001513004,
          5.70918527955655e-05,
          0.0,
          -4.9897076678462327e-05,
          -0.0005228229565545917,
          -0.3937004804611206,
          0.0,
          25.319528579711914,
          2.6571478843688965,
          -0.34138163924217224,
          1.0
        ]
      },
      "children": [
        1
      ]
    },
    {
      "name": "bip01 l toe0",
      "matrix": [
        4.6652647966993754e-08,
        -1.7209210056989832e-08,
        -0.39370080828666687,
        0.0,
        1.7657417166261412e-15,
        0.3937007784843445,
        -1.7209208280632993e-08,
        0.0,
        0.39370080828666687,
        2.0392498199648572e-15,
        4.6652647966993754e-08,
        0.0,
        -3.0672411918640137,
        9.740507778133178e-08,
        2.2283682823181152,
        1.0
      ],
      "extras": {
        "invPxPose": [
          5.162607408237818e-07,
          -0.3937007784843445,
          1.7209238478699262e-08,
          0.0,
          -4.03954594219158e-08,
          1.720918518799408e-08,
          0.39370080828666687,
          0.0,
          -0.39370080828666687,
          -5.16260683980363e-07,
          -4.039543455292005e-08,
          0.0,
          -2.2065391540527344,
          2.6238818168640137,
          -0.12274051457643509,
          1.0
        ]
      }
    },
    {
      "name": "bip01 lthightwist",
      "matrix": [
        -0.3870685398578644,
        -0.005292294546961784,
        0.07176544517278671,
        0.0,
        0.005421774927526712,
        -0.39366334676742554,
        0.00021201701019890606,
        0.0,
        0.0717557743191719,
        0.0011967491591349244,
        0.38710466027259827,
        0.0,
        -2.492314338684082,
        2.2745766639709473,
        -0.002588331699371338,
        1.0
      ],
      "extras": {
        "invPxPose": [
          0.005421473179012537,
          -0.3936633765697479,
          0.0002114803937729448,
          0.0,
          -0.3936634659767151,
          -0.005421443842351437,
          5.281427365844138e-05,
          0.0,
          -4.9897076678462327e-05,
          -0.00021218757319729775,
          -0.3937007486820221,
          0.0,
          25.31952667236328,
          2.657416582107544,
          -0.3392849564552307,
          1.0
        ]
      }
    },
    {
      "name": "bip01 pelvis",
      "matrix": [
        7.571711812225101e-13,
        -5.459843919197738e-07,
        0.39370080828666687,
        0.0,
        0.39370080828666687,
        5.459843350763549e-07,
        0.0,
        0.0,
        -5.459843350763549e-07,
        0.39370080828666687,
        5.459843919197738e-07,
        0.0,
        -0.0,
        -0.0,
        -0.0,
        1.0
      ],
      "extras": {
        "invPxPose": [
          -5.459843350763549e-07,
          0.39370080828666687,
          1.0622451327435556e-06,
          0.0,
          0.39370080828666687,
          5.459843350763549e-07,
          0.0,
          0.0,
          -1.473121646368425e-12,
          1.0622451327435556e-06,
          -0.39370080828666687,
          0.0,
          -25.3537654876709,
          -3.4243017580593005e-05,
          -0.33464565873146057,
          1.0
        ]
      },
      "children": [
        12
      ]
    },
    {
      "name": "bip01 r calf",
      "matrix": [
        0.39168643951416016,
        -4.6303937246972016e-12,
        0.03977477550506592,
        0.0,
        1.6640480226398635e-12,
        0.39370080828666687,
        -1.6386890108743835e-11,
        0.0,
        -0.039774782955646515,
        -4.5598306380734144e-11,
        0.39168643951416016,
        0.0,
        -11.147285461425781,
        2.385503705681913e-07,
        -1.1319788694381714,
        1.0
      ],
      "extras": {
        "invPxPose": [
          -0.005341161973774433,
          -0.39366310834884644,
          -0.0010661151027306914,
          0.0,
          -0.3916551172733307,
          0.0054214708507061005,
          -0.03971421718597412,
          0.0,
          0.03972509130835533,
          0.0005217906436882913,
          -0.3916911780834198,
          0.0,
          14.077183723449707,
          -2.6571531295776367,
          1.0863656997680664,
          1.0
        ]
      },
      "children": [
        8,
        14
      ]
    },
    {
      "name": "bip01 r foot",
      "matrix": [
        0.3916550576686859,
        0.00534110888838768,
        -0.03972509875893593,
        0.0,
        -0.005421469919383526,
        0.39366307854652405,
        -0.0005223066546022892,
        0.0,
        0.03971421346068382,
        0.00106662861071527,
        0.3916911482810974,
        0.0,
        -11.799104690551758,
        -0.16090814769268036,
        1.196768879890442,
        1.0
      ],
      "extras": {
        "invPxPose": [
          3.077154145641331e-14,
          -0.3937007784843445,
          5.162607408237818e-07,
          0.0,
          -0.39370080828666687,
          -2.2566470515698357e-14,
          6.257190321434791e-09,
          0.0,
          -6.257190321434791e-09,
          -5.16260683980363e-07,
          -0.39370080828666687,
          0.0,
          2.3511085510253906,
          -2.6238863468170166,
          0.8607017397880554,
          1.0
        ]
      },
      "children": [
        10
      ]
    },
    {
      "name": "bip01 r thigh",
      "matrix": [
        -0.387068510055542,
        0.0052355267107486725,
        0.0717695876955986,
        0.0,
        -0.0054212394170463085,
        -0.39366310834884644,
        -0.0005205171182751656,
        0.0,
        0.0717558041214943,
        -0.001500012120231986,
        0.3871035873889923,
        0.0,
        -2.4923133850097656,
        -2.274573802947998,
        -0.004383355379104614,
        1.0
      ],
      "extras": {
        "invPxPose": [
          -0.005421541631221771,
          -0.39366310834884644,
          -0.0005210538511164486,
          0.0,
          -0.3936634957790375,
          0.005421470385044813,
          5.7091947383014485e-05,
          0.0,
          -4.9911290261661634e-05,
          0.0005217906436882913,
          -0.3937004804611206,
          0.0,
          25.319528579711914,
          -2.657153367996216,
          -0.34138166904449463,
          1.0
        ]
      },
      "children": [
        7
      ]
    },
    {
      "name": "bip01 r toe0",
      "matrix": [
        1.3483386851476098e-08,
        1.7209210056989832e-08,
        -0.39370080828666687,
        0.0,
        -3.158667387232459e-16,
        0.3937007784843445,
        1.7209208280632993e-08,
        0.0,
        0.39370080828666687,
        -5.893780184355142e-16,
        1.3483386851476098e-08,
        0.0,
        -3.0672411918640137,
        -9.740508488675914e-08,
        2.2283687591552734,
        1.0
      ],
      "extras": {
        "invPxPose": [
          5.162607408237818e-07,
          -0.3937007784843445,
          -1.7209222491487708e-08,
          0.0,
          -7.226197862308936e-09,
          -1.7209229596915065e-08,
          0.39370080828666687,
          0.0,
          -0.39370080828666687,
          -5.16260683980363e-07,
          -7.226220066769429e-09,
          0.0,
          -2.2065396308898926,
          -2.6238865852355957,
          -0.12274032831192017,
          1.0
        ]
      }
    },
    {
      "name": "bip01 rthightwist",
      "matrix": [
        -0.3870685398578644,
        0.005292152054607868,
        0.07176543772220612,
        0.0,
        -0.005421238951385021,
        -0.3936633765697479,
        -0.0002099103294312954,
        0.0,
        0.0717558041214943,
        -0.0011945804581046104,
        0.3871046304702759,
        0.0,
        -2.4923136234283447,
        -2.274576425552368,
        -0.0025886595249176025,
        1.0
      ],
      "extras": {
        "invPxPose": [
          -0.005421541165560484,
          -0.3936633765697479,
          -0.00021044693130534142,
          0.0,
          -0.3936634659767151,
          0.0054215132258832455,
          5.281429548631422e-05,
          0.0,
          -4.991129389964044e-05,
          0.0002111542271450162,
          -0.3937007486820221,
          0.0,
          25.31952667236328,
          -2.657421588897705,
          -0.3392849862575531,
          1.0
        ]
      }
    },
    {
      "name": "bip01 spine",
      "matrix": [
        0.3871142864227295,
        -8.481865165776981e-07,
        -0.07171351462602615,
        0.0,
        5.427527298706991e-07,
        0.39370080828666687,
        -1.7266528402615222e-06,
        0.0,
        0.07171351462602615,
        1.59890305440058e-06,
        0.3871142864227295,
        0.0,
        -2.4192826747894287,
        1.8933620822281227e-06,
        0.4498842656612396,
        1.0
      ],
      "extras": {
        "invPxPose": [
          1.9939297146720492e-07,
          0.39370080828666687,
          -5.827264999425097e-07,
          0.0,
          0.3871142864227295,
          -3.022021530796337e-07,
          -0.07171351462602615,
          0.0,
          -0.07171351462602615,
          -5.366578079701867e-07,
          -0.3871142864227295,
          0.0,
          -27.40984344482422,
          2.0913266780553386e-05,
          4.739084720611572,
          1.0
        ]
      },
      "children": [
        3,
        9,
        5,
        11
      ]
    },
    {
      "name": "fbr4_f12206body16_01",
      "matrix": [
        0.23502056300640106,
        0.003406018018722534,
        0.3158385753631592,
        0.0,
        0.005443031433969736,
        -0.39366310834884644,
        0.00019503374642226845,
        0.0,
        0.31581002473831177,
        0.004250138066709042,
        -0.23504520952701569,
        0.0,
        -3.3616223335266113,
        -0.13857115805149078,
        -2.4876177310943604,
        1.0
      ],
      "extras": {
        "invPxPose": [
          -0.0013981839874759316,
          0.39368316531181335,
          0.0034525904338806868,
          0.0,
          -0.2657313942909241,
          0.0016038337489590049,
          -0.29049018025398254,
          0.0,
          -0.2904912233352661,
          -0.0033619969617575407,
          0.2657138407230377,
          0.0,
          5.949956893920898,
          -2.6619513034820557,
          8.158262252807617,
          1.0
        ]
      }
    },
    {
      "name": "fbr4_f12206body17_01",
      "matrix": [
        0.23502063751220703,
        0.0034066075459122658,
        -0.3158385753631592,
        0.0,
        -0.005442962981760502,
        0.39366310834884644,
        0.0001958200882654637,
        0.0,
        0.31581002473831177,
        0.004249613732099533,
        0.23504523932933807,
        0.0,
        -3.3616185188293457,
        -0.1386372298002243,
        2.4876227378845215,
        1.0
      ],
      "extras": {
        "invPxPose": [
          0.0013988304417580366,
          -0.39368313550949097,
          0.003452552016824484,
          0.0,
          -0.26573142409324646,
          0.0016033679712563753,
          0.29049015045166016,
          0.0,
          -0.29049116373062134,
          -0.0033624479547142982,
          -0.26571381092071533,
          0.0,
          5.9499616622924805,
          -2.6620030403137207,
          -8.1582612991333,
          1.0
        ]
      }
    }
  ],
  "meshes": [
    {
      "primitives": [
        {
          "attributes": {
            "POSITION": 0,
            "NORMAL": 1,
            "TEXCOORD_0": 2,
            "TANGENT": 3,
            "JOINTS_0": 4,
            "WEIGHTS_0": 5
          },
          "indices": 6,
          "material": 0
        },
        {
          "attributes": {
            "POSITION": 0,
            "NORMAL": 1,
            "TEXCOORD_0": 2,
            "TANGENT": 3,
            "JOINTS_0": 4,
            "WEIGHTS_0": 5
          },
          "indices": 7,
          "material": 1
        }
      ]
    }
  ],
  "materials": [
    {
      "pbrMetallicRoughness": {
        "baseColorFactor": [
          1.0,
          1.0,
          1.0,
          1.0
        ],
        "metallicFactor": 0.0,
        "roughnessFactor": 1.0
      },
      "name": "Material_0"
    },
    {
      "pbrMetallicRoughness": {
        "baseColorFactor": [
          1.0,
          1.0,
          1.0,
          1.0
        ],
        "metallicFactor": 0.0,
        "roughnessFactor": 1.0
      },
      "name": "Material_1"
    }
  ],
  "accessors": [
    {
      "bufferView": 0,
      "componentType": 5126,
      "count": 1222,
      "type": "VEC3",
      "min": [
        -14.069781303405762,
        0.05893564224243164,
        -9.632418632507324
      ],
      "max": [
        14.069781303405762,
        70.77442932128906,
        7.989589214324951
      ]
    },
    {
      "bufferView": 1,
      "componentType": 5126,
      "count": 1222,
      "type": "VEC3"
    },
    {
      "bufferView": 2,
      "componentType": 5126,
      "count": 1222,
      "type": "VEC2"
    },
    {
      "bufferView": 3,
      "componentType": 5126,
      "count": 1222,
      "type": "VEC4"
    },
    {
      "bufferView": 4,
      "componentType": 5123,
      "count": 1222,
      "type": "VEC4"
    },
    {
      "bufferView": 5,
      "componentType": 5126,
      "count": 1222,
      "type": "VEC4"
    },
    {
      "bufferView": 6,
      "componentType": 5125,
      "count": 1992,
      "type": "SCALAR"
    },
    {
      "bufferView": 7,
      "componentType": 5125,
      "count": 3060,
      "type": "SCALAR"
    },
    {
      "bufferView": 8,
      "componentType": 5126,
      "count": 14,
      "type": "MAT4"
    }
  ],
  "bufferViews": [
    {
      "buffer": 0,
      "byteOffset": 0,
      "byteLength": 14664,
      "target": 34962
    },
    {
      "buffer": 0,
      "byteOffset": 14664,
      "byteLength": 14664,
      "target": 34962
    },
    {
      "buffer": 0,
      "byteOffset": 29328,
      "byteLength": 9776,
      "target": 34962
    },
    {
      "buffer": 0,
      "byteOffset": 39104,
      "byteLength": 19552,
      "target": 34962
    },
    {
      "buffer": 0,
      "byteOffset": 58656,
      "byteLength": 9776,
      "target": 34962
    },
    {
      "buffer": 0,
      "byteOffset": 68432,
      "byteLength": 19552,
      "target": 34962
    },
    {
      "buffer": 0,
      "byteOffset": 87984,
      "byteLength": 7968,
      "target": 34963
    },
    {
      "buffer": 0,
      "byteOffset": 95952,
      "byteLength": 12240,
      "target": 34963
    },
    {
      "buffer": 0,
      "byteOffset": 108192,
      "byteLength": 896
    }
  ],
  "buffers": [
    {
      "byteLength": 109088,
      "uri": "F1_2206_leg.bin"
    }
  ],
  "skins": [
    {
      "joints": [
        1,
        2,
        3,
        4,
        5,
        6,
        7,
        8,
        9,
        10,
        11,
        12,
        13,
        14
      ],
      "inverseBindMatrices": 8
    }
  ]
}