{
  "asset": {
    "version": "2.0",
    "generator": "Zongine Converter"
  },
  "scenes": [
    {
      "nodes": [
        0
      ]
    }
  ],
  "scene": 0,
  "nodes": [
    {
      "mesh": 0,
      "skin": 0
    },
    {
      "name": "f1_hat_bone",
      "matrix": [
        0.39370080828666687,
        0.0,
        0.0,
        0.0,
        0.0,
        0.39370080828666687,
        0.0,
        0.0,
        0.0,
        0.0,
        0.39370080828666687,
        0.0,
        -0.0,
        -0.0,
        -0.0,
        1.0
      ],
      "extras": {
        "invPxPose": [
          0.39370080828666687,
          0.0,
          0.0,
          0.0,
          0.0,
          0.39370080828666687,
          0.0,
          0.0,
          0.0,
          0.0,
          0.39370080828666687,
          0.0,
          -0.0,
          -0.0,
          -0.0,
          1.0
        ]
      }
    },
    {
      "name": "b_hat",
      "matrix": [
        0.39370080828666687,
        0.0,
        0.0,
        0.0,
        0.0,
        0.39370080828666687,
        0.0,
        0.0,
        0.0,
        0.0,
        0.39370080828666687,
        0.0,
        -0.0,
        -0.0,
        -0.0,
        1.0
      ],
      "extras": {
        "invPxPose": [
          0.39370080828666687,
          0.0,
          0.0,
          0.0,
          0.0,
          0.39370080828666687,
          0.0,
          0.0,
          0.0,
          0.0,
          0.39370080828666687,
          0.0,
          -0.0,
          -0.0,
          -0.0,
          1.0
        ]
      }
    },
    {
      "name": "fbr4_f12206hat01_09",
      "matrix": [
        -0.3802858889102936,
        0.10189685225486755,
        2.3764692969052703e-07,
        0.0,
        -9.386560151369849e-08,
        5.678883781001787e-07,
        -0.39370080828666687,
        0.0,
        -0.10189685225486755,
        -0.3802858889102936,
        -5.24244114785688e-07,
        0.0,
        -6.95162296295166,
        -3.8833436965942383,
        0.036349717527627945,
        1.0
      ],
      "extras": {
        "invPxPose": [
          -0.3802858591079712,
          0.10189687460660934,
          2.720653640153614e-07,
          0.0,
          -1.3601933801510313e-07,
          5.435506977846671e-07,
          -0.3937007486820221,
          0.0,
          -0.10189687460660934,
          -0.3802858591079712,
          -4.898255951957253e-07,
          0.0,
          -6.951622486114502,
          -3.883342742919922,
          0.036349713802337646,
          1.0
        ]
      }
    },
    {
      "name": "fb3_f12206hat02_04",
      "matrix": [
        0.30159223079681396,
        -0.2530658543109894,
        1.2062329801665328e-07,
        0.0,
        0.2530658543109894,
        0.30159223079681396,
        -1.4381036805843905e-07,
        0.0,
        3.672067164228743e-11,
        1.87700265996682e-07,
        0.3937007486820221,
        0.0,
        -7.2350664138793945,
        6.0709357261657715,
        -2.8974238830414834e-06,
        1.0
      ],
      "extras": {
        "invPxPose": [
          -0.22581781446933746,
          0.32250046730041504,
          1.1833147794959586e-07,
          0.0,
          2.451540126457985e-07,
          3.1611520512342395e-07,
          -0.39370080828666687,
          0.0,
          -0.32250046730041504,
          -0.22581781446933746,
          -3.8213491393435106e-07,
          0.0,
          -15.056482315063477,
          7.564537525177002,
          0.03634611517190933,
          1.0
        ]
      }
    },
    {
      "name": "fb3_f12206hat03_05",
      "matrix": [
        0.34095498919487,
        -0.19685061275959015,
        7.039922422791278e-08,
        0.0,
        0.19685061275959015,
        0.34095498919487,
        -1.6257993706858542e-07,
        0.0,
        2.0322502791714214e-08,
        1.7599808188606403e-07,
        0.39370080828666687,
        0.0,
        -7.71195650100708,
        4.452503681182861,
        -1.5960638393153204e-06,
        1.0
      ],
      "extras": {
        "invPxPose": [
          -0.034313593059778214,
          0.3922027051448822,
          -5.52254739716318e-08,
          0.0,
          3.5004492815460253e-07,
          -2.4811305010530305e-08,
          -0.3937007784843445,
          0.0,
          -0.3922027051448822,
          -0.034313593059778214,
          -3.465503368715872e-07,
          0.0,
          -16.968982696533203,
          18.531837463378906,
          0.03633870184421539,
          1.0
        ]
      }
    },
    {
      "name": "fbr4_f12206hat04_01",
      "matrix": [
        -0.30158546566963196,
        0.2530658543109894,
        -0.002042066305875778,
        0.0,
        0.0026657029520720243,
        -2.96667064247913e-08,
        -0.393691748380661,
        0.0,
        -0.25305992364883423,
        -0.3015924394130707,
        -0.0017134561203420162,
        0.0,
        -4.278537750244141,
        -4.71204137802124,
        -0.06345012038946152,
        1.0
      ],
      "extras": {
        "invPxPose": [
          -0.30158543586730957,
          0.25306588411331177,
          -0.0020420318469405174,
          0.0,
          0.0026656542904675007,
          -3.398599801585078e-08,
          -0.3936917185783386,
          0.0,
          -0.2530599534511566,
          -0.3015924096107483,
          -0.001713421894237399,
          0.0,
          -4.278537750244141,
          -4.71204137802124,
          -0.06345011293888092,
          1.0
        ]
      }
    },
    {
      "name": "fbr4_f12206hat05_01",
      "matrix": [
        -0.3015677034854889,
        0.25304529070854187,
        -0.005031634587794542,
        0.0,
        0.25306594371795654,
        0.3015923500061035,
        2.523375997043331e-08,
        0.0,
        0.003854472190141678,
        -0.0032342521008104086,
        -0.39366868138313293,
        0.0,
        -3.8459439277648926,
        -1.5498161315917969,
        2.9036834239959717,
        1.0
      ],
      "extras": {
        "invPxPose": [
          -0.3015677332878113,
          0.2530452311038971,
          -0.0050316001288592815,
          0.0,
          0.25306594371795654,
          0.3015923798084259,
          -9.54790912999215e-09,
          0.0,
          0.0038544239941984415,
          -0.0032342560589313507,
          -0.39366868138313293,
          0.0,
          -3.8459441661834717,
          -1.5498164892196655,
          2.9036834239959717,
          1.0
        ]
      }
    },
    {
      "name": "fbr4_f12206hat06_01",
      "matrix": [
        -0.30156761407852173,
        0.2530454099178314,
        0.005028627347201109,
        0.0,
        -0.2530660927295685,
        -0.30159223079681396,
        -5.292270088830264e-07,
        0.0,
        0.003851810935884714,
        -0.0032327452208846807,
        0.39366868138313293,
        0.0,
        -3.9642319679260254,
        -1.6909722089767456,
        -2.8960392475128174,
        1.0
      ],
      "extras": {
        "invPxPose": [
          -0.30156758427619934,
          0.2530454099178314,
          0.005028592888265848,
          0.0,
          -0.25306612253189087,
          -0.3015922009944916,
          -4.944453166899621e-07,
          0.0,
          0.0038518067449331284,
          -0.0032326970249414444,
          0.39366868138313293,
          0.0,
          -3.9642319679260254,
          -1.6909724473953247,
          -2.8960390090942383,
          1.0
        ]
      }
    },
    {
      "name": "fbr4_f12206hat07_01",
      "matrix": [
        -0.3015851378440857,
        0.25306591391563416,
        0.002094275550916791,
        0.0,
        0.0027339078951627016,
        3.012138094504735e-08,
        0.3936913013458252,
        0.0,
        0.2530598044395447,
        0.3015924096107483,
        -0.0017573434161022305,
        0.0,
        -2.7675163745880127,
        -3.083261489868164,
        0.026154858991503716,
        1.0
      ],
      "extras": {
        "invPxPose": [
          -0.3015851676464081,
          0.25306588411331177,
          0.002094241324812174,
          0.0,
          0.002733903471380472,
          7.87702489901676e-08,
          0.3936913013458252,
          0.0,
          0.2530597746372223,
          0.3015924394130707,
          -0.0017573776422068477,
          0.0,
          -2.7675163745880127,
          -3.083261489868164,
          0.026154857128858566,
          1.0
        ]
      }
    },
    {
      "name": "Socket_s_hat\u0000\u0000\u0000%\u0000\u0000\u0000\u0000%\u0000\u0000\u0000",
      "matrix": [
        0.3937007486820221,
        1.1189648281572945e-14,
        5.191939767001941e-09,
        0.0,
        -1.1189649128605893e-14,
        0.3937007784843445,
        2.3428328233595502e-14,
        0.0,
        -1.4666496905846316e-09,
        -2.2540149813895377e-14,
        0.3937007784843445,
        0.0,
        0.0,
        0.0,
        0.0,
        1.0
      ],
      "extras": {
        "parent": "b_hat\u0000\u0000\u0000\u0000\u0000\u0000\u0000\u0000\u0000\u0000\u0000\u0000\u0000\u0000\u0000\u0000\u0000\u0000\u0000 \u0014"
      }
    }
  ],
  "meshes": [
    {
      "primitives": [
        {
          "attributes": {
            "POSITION": 0,
            "NORMAL": 1,
            "TEXCOORD_0": 2,
            "COLOR_0": 3,
            "TANGENT": 4,
            "JOINTS_0": 5,
            "WEIGHTS_0": 6
          },
          "indices": 7,
          "material": 0
        },
        {
          "attributes": {
            "POSITION": 0,
            "NORMAL": 1,
            "TEXCOORD_0": 2,
            "COLOR_0": 3,
            "TANGENT": 4,
            "JOINTS_0": 5,
            "WEIGHTS_0": 6
          },
          "indices": 8,
          "material": 1
        }
      ]
    }
  ],
  "materials": [
    {
      "pbrMetallicRoughness": {
        "baseColorFactor": [
          1.0,
          1.0,
          1.0,
          1.0
        ],
        "metallicFactor": 0.0,
        "roughnessFactor": 1.0
      },
      "name": "Material_0"
    },
    {
      "pbrMetallicRoughness": {
        "baseColorFactor": [
          1.0,
          1.0,
          1.0,
          1.0
        ],
        "metallicFactor": 0.0,
        "roughnessFactor": 1.0
      },
      "name": "Material_1"
    }
  ],
  "accessors": [
    {
      "bufferView": 0,
      "componentType": 5126,
      "count": 1125,
      "type": "VEC3",
      "min": [
        -86.16924285888672,
        -15.962685585021973,
        -19.578826904296875
      ],
      "max": [
        12.791106224060059,
        15.96423625946045,
        15.933419227600098
      ]
    },
    {
      "bufferView": 1,
      "componentType": 5126,
      "count": 1125,
      "type": "VEC3"
    },
    {
      "bufferView": 2,
      "componentType": 5126,
      "count": 1125,
      "type": "VEC2"
    },
    {
      "bufferView": 3,
      "componentType": 5126,
      "count": 1125,
      "type": "VEC4"
    },
    {
      "bufferView": 4,
      "componentType": 5126,
      "count": 1125,
      "type": "VEC4"
    },
    {
      "bufferView": 5,
      "componentType": 5123,
      "count": 1125,
      "type": "VEC4"
    },
    {
      "bufferView": 6,
      "componentType": 5126,
      "count": 1125,
      "type": "VEC4"
    },
    {
      "bufferView": 7,
      "componentType": 5125,
      "count": 2916,
      "type": "SCALAR"
    },
    {
      "bufferView": 8,
      "componentType": 5125,
      "count": 1776,
      "type": "SCALAR"
    },
    {
      "bufferView": 9,
      "componentType": 5126,
      "count": 9,
      "type": "MAT4"
    }
  ],
  "bufferViews": [
    {
      "buffer": 0,
      "byteOffset": 0,
      "byteLength": 13500,
      "target": 34962
    },
    {
      "buffer": 0,
      "byteOffset": 13500,
      "byteLength": 13500,
      "target": 34962
    },
    {
      "buffer": 0,
      "byteOffset": 27000,
      "byteLength": 9000,
      "target": 34962
    },
    {
      "buffer": 0,
      "byteOffset": 36000,
      "byteLength": 18000,
      "target": 34962
    },
    {
      "buffer": 0,
      "byteOffset": 54000,
      "byteLength": 18000,
      "target": 34962
    },
    {
      "buffer": 0,
      "byteOffset": 72000,
      "byteLength": 9000,
      "target": 34962
    },
    {
      "buffer": 0,
      "byteOffset": 81000,
      "byteLength": 18000,
      "target": 34962
    },
    {
      "buffer": 0,
      "byteOffset": 99000,
      "byteLength": 11664,
      "target": 34963
    },
    {
      "buffer": 0,
      "byteOffset": 110664,
      "byteLength": 7104,
      "target": 34963
    },
    {
      "buffer": 0,
      "byteOffset": 117768,
      "byteLength": 576
    }
  ],
  "buffers": [
    {
      "byteLength": 118344,
      "uri": "F1_2206_hat.bin"
    }
  ],
  "skins": [
    {
      "joints": [
        1,
        2,
        3,
        4,
        5,
        6,
        7,
        8,
        9
      ],
      "inverseBindMatrices": 9
    }
  ]
}